HIERARCHY
ROOT Hips
{
 OFFSET 0.000000 0.000000 0.000000
 CHANNELS 6 Xposition Yposition Zposition Yrotation Xrotation Zrotation
 JOINT Chest
 {
  OFFSET 0.000000 9.581000 -0.001100
  CHANNELS 3 Yrotation Xrotation Zrotation
  JOINT Chest2
  {
   OFFSET 0.000000 9.561100 0.002200
   CHANNELS 3 Yrotation Xrotation Zrotation
   JOINT Chest3
   {
    OFFSET 0.000000 9.521100 0.000000
    CHANNELS 3 Yrotation Xrotation Zrotation
    JOINT Chest4
    {
     OFFSET 0.000000 9.511400 0.000000
     CHANNELS 3 Yrotation Xrotation Zrotation
     JOINT Neck
     {
      OFFSET 0.000000 14.375100 0.000000
      CHANNELS 3 Yrotation Xrotation Zrotation
      JOINT Head
      {
       OFFSET 0.000000 8.901200 0.004600
       CHANNELS 3 Yrotation Xrotation Zrotation
       End Site
       {
        OFFSET 0.000000 16.962200 0.002400
       }
      }
     }
     JOINT RightCollar
     {
      OFFSET -2.920100 9.518800 0.000000
      CHANNELS 3 Yrotation Xrotation Zrotation
      JOINT RightShoulder
      {
       OFFSET -13.664500 0.000000 0.000000
       CHANNELS 3 Yrotation Xrotation Zrotation
       JOINT RightElbow
       {
        OFFSET 0.000000 -29.999200 0.000000
        CHANNELS 3 Yrotation Xrotation Zrotation
        JOINT RightWrist
        {
         OFFSET 0.000000 -24.253600 0.000000
         CHANNELS 3 Yrotation Xrotation Zrotation
         End Site
         {
          OFFSET 0.000000 -17.918900 0.000000
         }
        }
       }
      }
     }
     JOINT LeftCollar
     {
      OFFSET 2.920100 9.518800 0.000000
      CHANNELS 3 Yrotation Xrotation Zrotation
      JOINT LeftShoulder
      {
       OFFSET 13.664500 0.000000 0.000000
       CHANNELS 3 Yrotation Xrotation Zrotation
       JOINT LeftElbow
       {
        OFFSET 0.000000 -29.999200 0.000000
        CHANNELS 3 Yrotation Xrotation Zrotation
        JOINT LeftWrist
        {
         OFFSET 0.000000 -24.253600 0.000000
         CHANNELS 3 Yrotation Xrotation Zrotation
         End Site
         {
          OFFSET 0.000000 -17.918900 0.000000
         }
        }
       }
      }
     }
    }
   }
  }
 }
 JOINT RightHip
 {
  OFFSET -7.797300 0.005300 0.000500
  CHANNELS 3 Yrotation Xrotation Zrotation
  JOINT RightKnee
  {
   OFFSET 0.000000 -40.663400 -0.000500
   CHANNELS 3 Yrotation Xrotation Zrotation
   JOINT RightAnkle
   {
    OFFSET 0.000000 -39.523700 -0.000900
    CHANNELS 3 Yrotation Xrotation Zrotation
    JOINT RightToe
    {
     OFFSET 0.000000 -6.418000 14.485300
     CHANNELS 3 Yrotation Xrotation Zrotation
     End Site
     {
      OFFSET 0.000000 -1.465200 6.326400
     }
    }
   }
  }
 }
 JOINT LeftHip
 {
  OFFSET 7.797300 0.005300 0.000500
  CHANNELS 3 Yrotation Xrotation Zrotation
  JOINT LeftKnee
  {
   OFFSET 0.000000 -40.663400 -0.000500
   CHANNELS 3 Yrotation Xrotation Zrotation
   JOINT LeftAnkle
   {
    OFFSET 0.000000 -39.523700 -0.000900
    CHANNELS 3 Yrotation Xrotation Zrotation
    JOINT LeftToe
    {
     OFFSET 0.000000 -6.418000 14.485300
     CHANNELS 3 Yrotation Xrotation Zrotation
     End Site
     {
      OFFSET 0.000000 -1.465200 6.326400
     }
    }
   }
  }
 }
}
MOTION
Frames: 16
Frame Time: 0.008333
-22.554972 126.327281 61.569742 178.777753 -26.559309 -3.198890 -0.834726 20.298719 1.171154 -0.120506 2.591695 0.151055 -0.198139 4.235215 0.247576 -0.790185 17.362643 0.969896 1.634330 17.004395 -1.310264 2.016713 -7.837709 -1.749466 -6.776273 0.389522 0.103890 -18.688549 -4.983877 -2.981645 -102.056787 -19.096017 99.880423 -29.621219 -17.687267 -19.762878 -3.814758 0.122114 1.250840 21.438066 -12.008889 2.311903 86.383073 -33.872928 -90.166944 24.836098 -26.750605 18.478514 -9.930099 -51.662761 6.588734 -161.837654 74.325101 -155.955156 9.984207 -22.976340 -8.810705 0.003798 -0.024146 0.001682 -12.817756 -55.083598 -1.482070 32.012694 62.930064 24.804044 -3.505268 39.624015 -1.739342 0.108824 0.056264 0.048258
-22.555853 126.329843 61.569705 178.759152 -26.623896 -3.172648 -0.842431 20.304956 1.150185 -0.112322 2.617628 0.148591 -0.210768 4.196993 0.250253 -0.800890 17.342892 0.957156 1.542553 17.111057 -1.257935 1.908185 -7.725533 -1.673471 -6.774321 0.391865 0.097404 -18.656675 -4.988661 -2.958225 -102.055307 -19.074447 99.858516 -29.667844 -17.741504 -19.769042 -3.809402 0.101789 1.245376 21.413563 -12.004851 2.300372 86.354396 -33.829356 -90.130265 24.852565 -26.767313 18.488100 -9.883941 -51.607114 6.525536 -161.923734 74.317222 -156.030201 10.007813 -22.981596 -8.810230 -0.001462 -0.013884 -0.000648 -12.941212 -55.123680 -1.306232 31.991640 63.018760 24.741159 -3.662259 39.998295 -1.906080 0.023040 0.040676 0.010215
-22.556456 126.328497 61.577297 178.764606 -26.631427 -3.164973 -0.870090 20.256138 1.136919 -0.124262 2.579080 0.150380 -0.203885 4.220226 0.246195 -0.808302 17.317689 0.946161 1.452547 17.221086 -1.203380 1.801153 -7.609406 -1.595612 -6.774547 0.398371 0.089739 -18.633701 -4.987529 -2.934560 -102.042793 -19.035014 99.839739 -29.676943 -17.772816 -19.775540 -3.794018 0.153721 1.238714 21.394547 -12.055167 2.262156 86.316136 -33.787903 -90.102907 24.866485 -26.777560 18.491580 -9.886625 -51.602761 6.490611 -162.008915 74.313169 -156.102660 10.030622 -22.994574 -8.824640 -0.012628 -0.001674 -0.005595 -13.081118 -55.203699 -1.165138 31.998308 63.043874 24.757519 -3.870354 40.369423 -2.146030 -0.027112 0.009913 -0.012014
-22.560504 126.327217 61.584587 178.782083 -26.635194 -3.146238 -0.913378 20.204264 1.106369 -0.129424 2.554236 0.149661 -0.202706 4.224642 0.242553 -0.814590 17.291790 0.939058 1.363161 17.341430 -1.154252 1.696136 -7.481495 -1.523718 -6.776190 0.406259 0.080463 -18.625875 -4.982099 -2.911182 -102.012887 -18.982459 99.824864 -29.667388 -17.785444 -19.780234 -3.780834 0.209970 1.231471 21.389895 -12.096602 2.220337 86.264843 -33.754750 -90.082664 24.877681 -26.786751 18.490642 -9.883937 -51.602083 6.422510 -162.141570 74.303618 -156.206361 10.047131 -23.014557 -8.864608 -0.005105 0.007292 -0.002262 -13.143800 -55.265674 -1.130097 32.104855 62.993509 24.872232 -4.096765 40.726683 -2.352760 -0.071915 -0.033851 -0.031847
-22.566362 126.327900 61.588553 178.768787 -26.659630 -3.105389 -0.929673 20.171042 1.067820 -0.134268 2.528761 0.149221 -0.200501 4.227991 0.238569 -0.811823 17.318354 0.933780 1.263022 17.424444 -1.113892 1.592396 -7.334748 -1.463683 -6.787833 0.357971 0.078018 -18.630865 -4.970441 -2.888410 -101.966715 -18.926896 99.813126 -29.592477 -17.789835 -19.812584 -3.787113 0.168068 1.240343 21.403852 -12.083134 2.184110 86.203610 -33.732171 -90.069085 24.880830 -26.793892 18.487844 -9.842166 -51.584255 6.333431 -162.263169 74.296912 -156.303870 10.074429 -23.027227 -8.903651 0.001716 0.015527 0.000760 -13.097735 -55.276007 -1.173550 32.204497 62.954125 24.956375 -4.240539 40.945337 -2.474580 -0.119584 -0.029798 -0.052959
-22.571780 126.330104 61.590800 178.752814 -26.695399 -3.067344 -0.939492 20.147210 1.034809 -0.135096 2.519619 0.148454 -0.215326 4.153918 0.239554 -0.815693 17.325755 0.924688 1.175733 17.604654 -1.089730 1.489158 -7.169245 -1.416552 -6.785951 0.386014 0.059342 -18.641401 -4.954192 -2.867699 -101.909159 -18.876780 99.806215 -29.526948 -17.801079 -19.843018 -3.785935 0.138193 1.258335 21.425074 -11.992081 2.152869 86.141493 -33.748879 -90.017963 24.919594 -26.779429 18.443415 -9.800108 -51.554893 6.243984 -162.426717 74.296130 -156.445348 10.094445 -23.039802 -8.939911 0.008138 0.026464 0.003607 -12.963034 -55.258682 -1.290787 32.279041 62.921954 25.031378 -4.274830 41.087852 -2.490849 -0.203344 -0.017492 -0.090066
-22.577896 126.332713 61.593618 178.742189 -26.728629 -3.027993 -0.954306 20.118829 0.998608 -0.130072 2.545943 0.145306 -0.224889 4.085370 0.242912 -0.824065 17.295095 0.921677 1.085126 17.794817 -1.076068 1.387116 -6.993185 -1.379660 -6.791954 0.413429 0.042960 -18.654464 -4.938709 -2.850942 -101.845012 -18.836723 99.807900 -29.629750 -17.800208 -19.778998 -3.782068 0.179206 1.261024 21.437546 -11.934327 2.135866 86.111907 -33.744652 -90.015099 24.936746 -26.761533 18.404192 -9.755162 -51.527228 6.138897 -162.623972 74.292923 -156.597638 10.094587 -23.049286 -9.004558 0.036985 0.025631 0.016393 -12.748499 -55.216219 -1.465809 32.308590 62.873634 25.070683 -4.356974 41.163031 -2.544769 -0.217464 0.012628 -0.096363
-22.582557 126.335555 61.597560 178.728379 -26.758586 -2.995508 -0.962030 20.086859 0.970893 -0.126288 2.572157 0.143582 -0.229597 4.040261 0.244520 -0.828680 17.273989 0.921684 0.992298 17.955918 -1.066559 1.287757 -6.818236 -1.349070 -6.807997 0.412255 0.036045 -18.645685 -4.888159 -2.868046 -101.812066 -18.819616 99.811384 -29.706933 -17.782469 -19.723873 -3.774924 0.256325 1.249334 21.441370 -11.946799 2.109913 86.094477 -33.715455 -90.125532 24.858788 -26.777632 18.478022 -9.712036 -51.504224 6.059226 -162.764656 74.298221 -156.719983 10.099433 -23.048947 -9.030498 0.043654 0.027682 0.019350 -12.518386 -55.159816 -1.625713 32.319856 62.820397 25.076709 -4.442851 41.207936 -2.597042 -0.199837 0.039102 -0.088590
-22.583209 126.338558 61.602933 178.724430 -26.784703 -2.990509 -0.969607 20.053795 0.968431 -0.127473 2.561858 0.142314 -0.224444 4.070651 0.242094 -0.837661 17.219417 0.928536 0.904034 18.104721 -1.060463 1.193862 -6.656095 -1.323130 -6.825517 0.409059 0.029819 -18.667856 -4.902086 -2.844077 -101.739420 -18.803763 99.830622 -29.625152 -17.791482 -19.792345 -3.776740 0.198948 1.275968 21.429680 -11.908115 2.035123 86.030243 -33.780511 -90.084805 24.831030 -26.779591 18.500827 -9.701023 -51.482761 6.007921 -162.915355 74.306197 -156.859908 10.119816 -23.032993 -9.018430 0.018034 0.019130 0.007992 -12.304646 -55.089741 -1.746300 32.308446 62.766157 25.053316 -4.594484 41.228589 -2.647404 -0.121357 0.045544 -0.053807
-22.584735 126.342081 61.607977 178.721591 -26.818375 -2.979356 -0.981445 20.030426 0.962377 -0.137950 2.492035 0.148216 -0.219827 4.107708 0.237699 -0.845108 17.222429 0.929384 0.822547 18.235232 -1.058111 1.107894 -6.513479 -1.302676 -6.835847 0.405635 0.018362 -18.689782 -4.923278 -2.823526 -101.670954 -18.817032 99.832289 -29.576157 -17.796473 -19.842022 -3.766323 0.183983 1.279742 21.402293 -11.891693 1.987862 85.994109 -33.831854 -90.017278 24.840289 -26.762343 18.456833 -9.672565 -51.457353 5.933847 -163.081206 74.315016 -157.011678 10.140586 -23.019214 -9.018052 0.000922 0.016204 0.000408 -12.071327 -55.010355 -1.870210 32.281950 62.714079 25.008893 -4.696436 41.240959 -2.637363 -0.079490 0.057632 -0.035252
-22.585056 126.346120 61.612627 178.715463 -26.860965 -2.972613 -0.987761 20.016738 0.967106 -0.134202 2.517565 0.140545 -0.231022 4.052240 0.249696 -0.856552 17.225596 0.928741 0.747326 18.348570 -1.058942 1.029125 -6.389311 -1.286913 -6.837917 0.405753 -0.000203 -18.704856 -4.929347 -2.817570 -101.610974 -18.861517 99.788712 -29.661452 -17.756945 -19.700227 -3.746609 0.188780 1.269148 21.365071 -11.881240 1.955500 85.978382 -33.871506 -89.973944 24.852049 -26.746362 18.412215 -9.636351 -51.422561 5.875952 -163.205580 74.321659 -157.113055 10.137572 -23.005169 -9.023107 0.000830 0.012997 0.000367 -11.892507 -54.935099 -1.954699 32.317973 62.656566 25.005187 -4.702856 41.302841 -2.662631 -0.057464 0.072489 -0.025491
-22.586647 126.349156 61.619124 178.715100 -26.895837 -2.960253 -0.999731 19.993813 0.965870 -0.139468 2.498076 0.145355 -0.231705 4.060183 0.246429 -0.872120 17.212209 0.932663 0.675858 18.448880 -1.061850 0.954600 -6.279217 -1.274140 -6.838234 0.410054 -0.022638 -18.722196 -4.936096 -2.812434 -101.609132 -18.836356 99.906019 -29.598434 -17.759766 -19.747473 -3.730077 0.196134 1.255735 21.345880 -11.838063 1.942328 85.980992 -33.881394 -90.085826 24.798684 -26.775683 18.499986 -9.592794 -51.398112 5.812312 -163.323808 74.335289 -157.209613 10.121908 -22.987675 -9.023542 0.004333 0.012526 0.001920 -11.812796 -54.890721 -2.004006 32.478273 62.584567 25.091190 -4.680395 41.386808 -2.597694 -0.074042 0.074263 -0.032845
-22.585402 126.351948 61.626250 178.726727 -26.931286 -2.970163 -1.013024 19.970032 0.983385 -0.144048 2.478610 0.150427 -0.233083 4.069295 0.243743 -0.879577 17.240658 0.924535 0.622241 18.497603 -1.056780 0.862943 -6.179316 -1.248847 -6.844566 0.375214 -0.024323 -18.741275 -4.937830 -2.811954 -101.596628 -18.844521 99.984427 -29.564089 -17.777809 -19.765060 -3.723638 0.200891 1.248666 21.329493 -11.831129 1.926181 85.977095 -33.891908 -90.135359 24.757689 -26.800603 18.567433 -9.578171 -51.367455 5.781689 -163.397048 74.345816 -157.261050 10.110569 -22.971589 -9.025591 0.009688 0.010290 0.004293 -11.643078 -54.826543 -2.069299 32.427723 62.527898 25.032540 -4.734337 41.482331 -2.596155 -0.038202 0.073511 -0.016947
-22.578789 126.357650 61.627929 178.751440 -27.007559 -3.017903 -1.023171 19.986838 1.034108 -0.146298 2.475139 0.151497 -0.232908 4.098832 0.236399 -0.887016 17.233348 0.927907 0.605218 18.541460 -1.066515 0.735555 -6.088262 -1.192868 -6.847084 0.338388 -0.024209 -18.746175 -4.903262 -2.836741 -101.609792 -18.845849 100.068224 -29.551401 -17.789254 -19.750589 -3.723806 0.151750 1.256453 21.278005 -11.853101 1.875973 85.947798 -33.938069 -90.078697 24.786663 -26.766724 18.491549 -9.603085 -51.286256 5.799173 -163.413147 74.357603 -157.259282 10.102671 -22.945712 -9.021920 0.008245 -0.003484 0.003653 -11.459166 -54.744161 -2.119600 32.227709 62.547126 24.897632 -4.795450 41.581730 -2.678201 0.024871 0.061187 0.011029
-22.573405 126.360284 61.634817 178.772494 -27.050282 -3.058398 -1.033619 19.968704 1.078435 -0.145998 2.505008 0.145387 -0.240238 4.044134 0.250302 -0.913744 17.182491 0.950298 0.539508 18.682403 -1.092407 0.666699 -6.010754 -1.171262 -6.826028 0.389275 -0.071951 -18.756465 -4.865436 -2.864952 -101.626249 -18.852394 100.152546 -29.536463 -17.791618 -19.728932 -3.708889 0.195156 1.216086 21.259906 -11.815737 1.861338 85.933692 -33.945958 -90.120529 24.774480 -26.754430 18.489430 -9.628311 -51.239165 5.824954 -163.381227 74.367619 -157.211998 10.102936 -22.931551 -9.019976 0.005496 -0.004805 0.002435 -11.386460 -54.721263 -2.125936 32.181776 62.556666 24.878877 -4.785719 41.709620 -2.697341 0.017277 0.032754 0.007659
-22.574256 126.362879 61.640191 178.784945 -27.101540 -3.058952 -1.047924 19.973275 1.080156 -0.146457 2.518920 0.143657 -0.245830 3.990181 0.261328 -0.928876 17.171777 0.958966 0.469408 18.775985 -1.092788 0.604727 -5.939007 -1.146842 -6.809677 0.399776 -0.091463 -18.777008 -4.851963 -2.881895 -101.607744 -18.888026 100.157430 -29.527451 -17.790814 -19.716190 -3.704752 0.218093 1.189129 21.243184 -11.801848 1.851496 85.914191 -33.956242 -90.133476 24.743243 -26.767577 18.531133 -9.602210 -51.187322 5.796890 -163.330853 74.374494 -157.152116 10.104567 -22.925677 -9.019070 0.010016 -0.003382 0.004438 -11.335413 -54.688030 -2.161879 32.268589 62.507449 24.946594 -4.813537 41.832171 -2.720905 -0.000996 0.030117 -0.000442
